<svg width="28" height="28" viewBox="0 0 28 28" fill="none" xmlns="http://www.w3.org/2000/svg">
<g clip-path="url(#clip0_9305_9151)">
<path d="M24.5 9.43717V22.1667C24.5 23.4558 23.4558 24.5 22.1667 24.5H5.83333C4.54417 24.5 3.5 23.4558 3.5 22.1667V9.43717C3.5 9.12217 3.56417 8.8095 3.68783 8.52017L5.22783 4.91633C5.59533 4.05767 6.43883 3.5 7.37333 3.5H20.6267C21.5612 3.5 22.4047 4.05767 22.7722 4.91633L24.3122 8.52017C24.4358 8.81067 24.5 9.12217 24.5 9.43717Z" stroke="#292929" stroke-width="1.2" stroke-linecap="round" stroke-linejoin="round"/>
<path d="M22.1667 7.10383V19.8333C22.1667 21.1225 21.1226 22.1667 19.8334 22.1667H3.50008C2.21091 22.1667 1.16675 21.1225 1.16675 19.8333V7.10383C1.16675 6.78883 1.23091 6.47616 1.35458 6.18683L2.89458 2.583C3.26208 1.72433 4.10558 1.16666 5.04008 1.16666H18.2934C19.2279 1.16666 20.0714 1.72433 20.4389 2.583L21.9789 6.18683C22.1026 6.47733 22.1667 6.78883 22.1667 7.10383Z" fill="#FBE8BB"/>
<path d="M16.3333 3.49992L17.5 9.33325V13.0957C17.5 13.5951 17.0508 13.9999 16.4967 13.9999H11.5033C10.9492 13.9999 10.5 13.5951 10.5 13.0957V9.33325L11.6667 3.49992" fill="white"/>
<path d="M16.3333 3.49992L17.5 9.33325V13.0957C17.5 13.5951 17.0508 13.9999 16.4967 13.9999H11.5033C10.9492 13.9999 10.5 13.5951 10.5 13.0957V9.33325L11.6667 3.49992" stroke="#292929" stroke-width="1.2" stroke-linecap="round" stroke-linejoin="round"/>
<path d="M24.5 9.43717V22.1667C24.5 23.4558 23.4558 24.5 22.1667 24.5H5.83333C4.54417 24.5 3.5 23.4558 3.5 22.1667V9.43717C3.5 9.12217 3.56417 8.8095 3.68783 8.52017L5.22783 4.91633C5.59533 4.05767 6.43883 3.5 7.37333 3.5H20.6267C21.5612 3.5 22.4047 4.05767 22.7722 4.91633L24.3122 8.52017C24.4358 8.81067 24.5 9.12217 24.5 9.43717Z" stroke="#292929" stroke-width="1.2" stroke-linecap="round" stroke-linejoin="round"/>
<path d="M3.5 9.33333H24.4883" stroke="#292929" stroke-width="1.2" stroke-linecap="round" stroke-linejoin="round"/>
<path d="M7 19.8333H9.33333" stroke="#FD9339" stroke-width="1.2" stroke-linecap="round" stroke-linejoin="round"/>
</g>
<defs>
<clipPath id="clip0_9305_9151">
<rect width="28" height="28" fill="white"/>
</clipPath>
</defs>
</svg>
