<svg width="78" height="18" viewBox="0 0 78 18" fill="none" xmlns="http://www.w3.org/2000/svg">
<path d="M25.807 12.025C26.132 11.739 26.457 11.44 26.756 11.141C27.055 10.842 27.445 10.4 27.952 9.815C28.953 8.645 29.629 7.28 29.629 6.097C29.629 5.473 29.408 4.927 28.979 4.472C28.55 4.017 27.926 3.796 27.133 3.796C25.95 3.796 24.949 4.355 24.585 5.408C24.572 5.499 24.559 5.551 24.559 5.59C24.559 5.889 24.754 6.11 25.079 6.11C25.326 6.11 25.495 5.993 25.599 5.772C25.885 5.148 26.366 4.836 27.042 4.836C27.991 4.836 28.524 5.46 28.524 6.305C28.524 6.994 28.095 7.917 27.627 8.632C27.38 8.983 27.068 9.386 26.678 9.841C26.275 10.296 25.95 10.66 25.69 10.933C25.417 11.206 25.092 11.531 24.689 11.921C24.455 12.155 24.338 12.35 24.338 12.519C24.338 12.792 24.546 13 24.897 13H29.512C29.785 13 30.006 12.779 30.006 12.506C30.006 12.246 29.785 12.025 29.512 12.025H25.807ZM39.1867 13.13C40.5127 13.13 41.6177 12.688 42.5017 11.791C43.3857 10.907 43.8277 9.789 43.8277 8.45C43.8277 7.085 43.3857 5.954 42.5147 5.083C41.6307 4.212 40.5257 3.77 39.1867 3.77C37.8477 3.77 36.7297 4.212 35.8587 5.109C34.9877 6.006 34.5457 7.124 34.5457 8.45C34.5457 9.815 34.9877 10.946 35.8717 11.817C36.7427 12.688 37.8477 13.13 39.1867 13.13ZM39.1867 4.81C40.1617 4.81 40.9937 5.148 41.6567 5.837C42.3197 6.526 42.6577 7.397 42.6577 8.45C42.6577 9.49 42.3327 10.361 41.6957 11.05C41.0457 11.739 40.2137 12.09 39.1867 12.09C38.2117 12.09 37.3797 11.739 36.7167 11.037C36.0537 10.348 35.7157 9.477 35.7157 8.45C35.7157 7.397 36.0407 6.526 36.7037 5.837C37.3667 5.148 38.1857 4.81 39.1867 4.81ZM47.9936 8.19H49.6446C50.2816 8.242 50.2816 7.098 49.6446 7.15H45.3026C44.6656 7.098 44.6656 8.242 45.3026 8.19H46.9536V12.597C46.9016 13.234 48.0456 13.234 47.9936 12.597V8.19ZM53.2512 7.02C52.4972 7.02 51.8602 7.176 51.3402 7.475C51.1582 7.592 51.0672 7.722 51.0672 7.891C51.0672 7.969 51.0802 8.034 51.1192 8.099C51.2102 8.242 51.3402 8.32 51.5092 8.32C51.6002 8.32 51.6912 8.307 51.7562 8.268C52.1982 8.06 52.6402 7.956 53.0952 7.956C53.8622 7.956 54.3432 8.281 54.3432 8.801C54.3432 9.269 53.9142 9.633 53.3292 9.633H52.8482C52.6012 9.633 52.4062 9.828 52.4062 10.049C52.4062 10.296 52.6012 10.478 52.8482 10.478H53.3942C54.1092 10.478 54.5382 10.751 54.5382 11.232C54.5382 11.804 53.9012 12.194 53.0042 12.194C52.5882 12.194 52.1462 12.064 51.6782 11.791C51.5872 11.739 51.4962 11.713 51.4052 11.713C51.2362 11.713 51.1062 11.778 51.0152 11.921C50.9502 12.025 50.9242 12.116 50.9242 12.194C50.9242 12.363 51.0022 12.493 51.1452 12.597C51.6782 12.948 52.3412 13.13 53.1602 13.13C54.6292 13.13 55.6432 12.454 55.6432 11.375C55.6432 10.66 55.2012 10.088 54.4212 9.984C55.1102 9.737 55.4482 9.269 55.4482 8.593C55.4482 7.618 54.6552 7.02 53.2512 7.02ZM58.4024 7.579C58.4544 6.942 57.3104 6.942 57.3624 7.579V12.506C57.3624 12.779 57.5834 13 57.8564 13H59.2474C60.9504 13 61.6784 12.103 61.6784 10.92C61.6784 9.737 61.0284 8.905 59.3644 8.905H58.4024V7.579ZM63.8364 7.579C63.8884 6.942 62.7444 6.942 62.7964 7.579V12.597C62.7444 13.234 63.8884 13.234 63.8364 12.597V7.579ZM58.4024 9.88H59.1694C60.1054 9.88 60.5734 10.244 60.5734 10.959C60.5734 11.674 60.1574 12.025 59.1564 12.025H58.4024V9.88ZM70.4742 8.606C70.4742 7.605 69.6292 7.098 67.9522 7.098C67.8092 7.098 67.2632 7.111 66.3272 7.137C66.0542 7.15 65.8332 7.384 65.8332 7.657V12.493C65.8332 12.766 66.0542 13 66.3272 13.013C67.3412 13.039 67.8872 13.052 67.9782 13.052C69.7722 13.052 70.6692 12.48 70.6692 11.349C70.6692 10.595 70.2142 10.127 69.3042 9.958C69.9932 9.841 70.4742 9.295 70.4742 8.606ZM68.1212 10.374C69.0832 10.374 69.5642 10.673 69.5642 11.271C69.5642 11.895 69.0702 12.207 68.0692 12.207C67.9002 12.207 67.4972 12.194 66.8732 12.168V10.374H68.1212ZM66.8732 7.982C67.3932 7.956 67.7832 7.943 68.0302 7.943C68.9272 7.943 69.3692 8.229 69.3692 8.814C69.3692 9.373 68.9012 9.724 68.1862 9.724H66.8732V7.982ZM71.971 11.284C71.971 12.389 72.686 13.091 73.765 13.091C74.558 13.091 75.182 12.805 75.637 12.246V12.636C75.637 12.883 75.858 13.091 76.131 13.091C76.404 13.091 76.625 12.883 76.625 12.636V9.412C76.625 7.813 75.988 7.02 74.376 7.02C73.869 7.02 73.323 7.137 72.764 7.371C72.595 7.436 72.504 7.579 72.504 7.787C72.504 7.852 72.517 7.904 72.543 7.969C72.621 8.138 72.751 8.229 72.946 8.229C73.011 8.229 73.076 8.216 73.141 8.19C73.544 8.034 73.934 7.956 74.311 7.956C75.39 7.956 75.637 8.554 75.637 9.802C75.286 9.555 74.805 9.425 74.181 9.425C72.881 9.425 71.971 10.127 71.971 11.284ZM75.637 11.401C75.208 11.908 74.714 12.155 74.129 12.155C73.466 12.155 73.076 11.804 73.076 11.232C73.076 10.608 73.635 10.27 74.324 10.27C74.831 10.27 75.273 10.4 75.637 10.66V11.401Z" fill="#4E2D2D"/>
<path d="M24 14.3H77.431V14.95H24V14.3Z" fill="#4E2D2D"/>
<g clip-path="url(#clip0_6485_14964)">
<path d="M9.75 12.75H13.5C14.7427 12.75 15.75 11.7427 15.75 10.5V4.5C15.75 3.25725 14.7427 2.25 13.5 2.25H4.5C3.25725 2.25 2.25 3.25725 2.25 4.5V10.5C2.25 11.7427 3.25725 12.75 4.5 12.75H6V15.75L9.75 12.75Z" stroke="#4E2D2D" stroke-width="1.2" stroke-linecap="round" stroke-linejoin="round"/>
</g>
<defs>
<clipPath id="clip0_6485_14964">
<rect width="18" height="18" fill="white"/>
</clipPath>
</defs>
</svg>
