<svg width="22" height="22" viewBox="0 0 22 22" fill="none" xmlns="http://www.w3.org/2000/svg">
<g clip-path="url(#clip0_9305_9090)">
<path d="M4.69971 9.20792V9.05025C4.69971 5.57058 7.52029 2.75 11 2.75C14.4796 2.75 17.3002 5.57058 17.3002 9.05025V9.20792C17.3002 12.3805 13.2834 17.1563 11.6645 18.953C11.308 19.349 10.692 19.349 10.3354 18.953C8.71654 17.1563 4.69971 12.3805 4.69971 9.20792V9.20792Z" stroke="#292929" stroke-linecap="round" stroke-linejoin="round"/>
<path d="M9.1665 9.12531C9.1665 10.1382 9.98692 10.9586 10.9998 10.9586C12.0128 10.9586 12.8332 10.1382 12.8332 9.12531V9.09139C12.8332 8.07847 12.0128 7.25806 10.9998 7.25806C9.98692 7.25806 9.1665 8.07847 9.1665 9.09139" stroke="#292929" stroke-linecap="round" stroke-linejoin="round"/>
</g>
<defs>
<clipPath id="clip0_9305_9090">
<rect width="22" height="22" fill="white"/>
</clipPath>
</defs>
</svg>
