<svg width="219" height="45" viewBox="0 0 219 45" fill="none" xmlns="http://www.w3.org/2000/svg">
<g clip-path="url(#clip0_9305_9160)">
<path d="M47.2458 24.2874C45.0194 24.2874 43.1432 23.4649 41.6673 21.82C40.1914 20.175 39.4409 18.1462 39.4409 15.7061V15.6513C39.4409 13.2387 40.1914 11.1825 41.6923 9.53748C43.1933 7.86509 45.0944 7.0426 47.3959 7.0426C49.8224 7.0426 51.8236 7.89251 53.3996 9.61973L51.2733 12.3065C49.9725 11.0454 48.6967 10.4148 47.3709 10.4148C46.1201 10.4148 45.0694 10.9083 44.2189 11.9227C43.3684 12.9371 42.9681 14.1708 42.9681 15.5965V15.6513C42.9681 17.1044 43.3934 18.3655 44.2189 19.3799C45.0444 20.3943 46.0951 20.9152 47.3959 20.9152C48.1964 20.9152 48.9218 20.7507 49.5222 20.4492C50.1226 20.1202 50.748 19.6267 51.3984 18.9687L53.5247 21.3265C52.6742 22.3409 51.7736 23.0811 50.823 23.5746C49.8224 24.0407 48.6467 24.2874 47.2458 24.2874Z" fill="#4E2D2D"/>
<path d="M56.1763 23.9873V7.31821H59.5284V12.5547H62.23C64.1062 12.5547 65.5571 13.0482 66.6328 14.0078C67.7084 14.9673 68.2338 16.3656 68.2338 18.2025V18.2299C68.2338 20.0394 67.7084 21.4376 66.6328 22.4794C65.5571 23.5212 64.0562 24.0421 62.105 24.0421H56.1763V23.9873ZM59.5284 20.6973H62.155C63.0055 20.6973 63.6559 20.478 64.1312 20.0668C64.6065 19.6555 64.8317 19.0524 64.8317 18.2573V18.2299C64.8317 17.4622 64.6065 16.8865 64.1562 16.4478C63.706 16.0366 63.0556 15.8172 62.18 15.8172H59.5284V20.6973ZM70.4351 23.9873V7.31821H73.7872V24.0147H70.4351V23.9873Z" fill="#4E2D2D"/>
<path d="M77.4395 23.9873V7.31821H83.6683C85.4695 7.31821 86.8953 7.83912 87.921 8.90835C88.9716 9.97758 89.497 11.3484 89.497 13.103V13.1579C89.497 15.0222 88.9216 16.4752 87.7459 17.4896C86.5952 18.504 85.1192 19.025 83.3431 19.025H80.7915V24.0421H77.4395V23.9873ZM80.7915 15.735H83.4432C84.2437 15.735 84.8941 15.4883 85.3694 15.0222C85.8447 14.5561 86.0948 13.9529 86.0948 13.2127V13.1579C86.0948 12.3354 85.8447 11.7322 85.3694 11.2936C84.8941 10.8549 84.2187 10.6356 83.3681 10.6356H80.7915V15.735Z" fill="#4E2D2D"/>
<path d="M105.157 21.7664C103.606 23.4388 101.68 24.2887 99.3532 24.2887C97.0268 24.2887 95.1006 23.4662 93.5746 21.7938C92.0487 20.1215 91.2732 18.0927 91.2732 15.7074V15.6526C91.2732 13.24 92.0487 11.2112 93.5996 9.53878C95.1506 7.86638 97.0768 7.01648 99.4033 7.01648C101.73 7.01648 103.656 7.83897 105.182 9.51136C106.708 11.1838 107.483 13.2126 107.483 15.5978V15.6526C107.483 18.0652 106.708 20.094 105.157 21.7664ZM96.1012 19.3812C96.9768 20.3956 98.0774 20.9165 99.4033 20.9165C100.729 20.9165 101.83 20.423 102.68 19.4086C103.531 18.3942 103.956 17.1879 103.956 15.7074V15.6526C103.956 14.1995 103.531 12.9384 102.655 11.924C101.78 10.9096 100.679 10.3887 99.3532 10.3887C98.0274 10.3887 96.9267 10.8822 96.0762 11.8966C95.2257 12.911 94.8004 14.1173 94.8004 15.5978V15.6526C94.8004 17.1057 95.2257 18.3668 96.1012 19.3812Z" fill="#4E2D2D"/>
<path d="M110.46 23.9873V7.31821H117.54C119.291 7.31821 120.617 7.8117 121.517 8.79868C122.218 9.56634 122.568 10.4985 122.568 11.6226V11.6774C122.568 13.3224 121.892 14.5013 120.566 15.2689C121.517 15.6528 122.218 16.1737 122.693 16.8316C123.168 17.4622 123.418 18.3121 123.418 19.3814V19.4362C123.418 20.9167 122.918 22.0682 121.892 22.8358C120.867 23.6035 119.491 24.0147 117.715 24.0147H110.46V23.9873ZM119.216 12.2806V12.2257C119.216 11.0742 118.49 10.4985 117.014 10.4985H113.712V14.0626H116.789C118.415 14.0626 119.216 13.4594 119.216 12.2806ZM120.066 18.9701V18.9153C120.066 17.709 119.241 17.1058 117.59 17.1058H113.712V20.7796H117.69C119.291 20.7796 120.066 20.1764 120.066 18.9701Z" fill="#4E2D2D"/>
<path d="M124.869 23.9874L131.398 7.18121H134.475L141.004 23.9874H137.502L136.101 20.2313H129.672L128.271 23.9874H124.869ZM130.873 17.0236H134.925L132.874 11.5952L130.873 17.0236Z" fill="#4E2D2D"/>
<path d="M143.355 23.9873V7.31821H149.584C151.385 7.31821 152.811 7.83912 153.837 8.90835C154.888 9.97758 155.413 11.3484 155.413 13.103V13.1579C155.413 15.0222 154.838 16.4752 153.662 17.4896C152.511 18.504 151.035 19.025 149.259 19.025H146.708V24.0421H143.355V23.9873ZM146.683 15.735H149.334C150.135 15.735 150.785 15.4883 151.26 15.0222C151.736 14.5561 151.986 13.9529 151.986 13.2127V13.1579C151.986 12.3354 151.736 11.7322 151.26 11.2936C150.785 10.8549 150.11 10.6356 149.259 10.6356H146.683V15.735Z" fill="#4E2D2D"/>
<path d="M157.865 23.9873V7.31821H169.347V10.5807H161.192V13.9529H168.371V17.2155H161.192V20.7248H169.447V23.9873H157.865Z" fill="#4E2D2D"/>
<path d="M172.449 23.9873V7.31821H175.801V13.9255H181.98V7.31821H185.332V24.0147H181.98V17.2977H175.801V23.9873H172.449Z" fill="#4E2D2D"/>
<path d="M202.518 23.9873H199.165V13.103L191.936 23.9873H188.984V7.31821H192.336V17.8735L199.316 7.31821H202.518V23.9873Z" fill="#4E2D2D"/>
<path d="M206.17 23.9873V7.31821H217.652V10.5807H209.497V13.9529H216.676V17.2155H209.497V20.7248H217.752V23.9873H206.17Z" fill="#4E2D2D"/>
<path d="M40.3987 32.4969C40.3987 31.9775 40.4615 31.4959 40.5872 31.0521C40.7129 30.6082 40.9014 30.2242 41.1527 29.8999C41.4041 29.5726 41.7197 29.316 42.0996 29.1303C42.4795 28.9446 42.9222 28.8517 43.4277 28.8517C43.8933 28.8517 44.3132 28.9446 44.6873 29.1303C45.0615 29.316 45.3786 29.5726 45.6385 29.8999C45.9013 30.2242 46.1026 30.6082 46.2426 31.0521C46.3825 31.4959 46.4525 31.9775 46.4525 32.4969C46.4525 33.0132 46.3825 33.4948 46.2426 33.9418C46.1026 34.3856 45.9013 34.7712 45.6385 35.0986C45.3786 35.4229 45.0615 35.6778 44.6873 35.8636C44.3132 36.0493 43.8933 36.1421 43.4277 36.1421C42.9222 36.1421 42.4795 36.0493 42.0996 35.8636C41.7197 35.6778 41.4041 35.4229 41.1527 35.0986C40.9014 34.7712 40.7129 34.3856 40.5872 33.9418C40.4615 33.4948 40.3987 33.0132 40.3987 32.4969ZM43.4277 34.8861C43.6962 34.8861 43.9362 34.8263 44.1475 34.7067C44.3589 34.5871 44.5374 34.4218 44.6831 34.2109C44.8316 33.9969 44.9444 33.745 45.0215 33.4554C45.0986 33.1627 45.1372 32.8432 45.1372 32.4969C45.1372 32.1507 45.0986 31.8327 45.0215 31.5431C44.9444 31.2504 44.8316 30.9985 44.6831 30.7876C44.5374 30.5736 44.3589 30.4067 44.1475 30.2871C43.9362 30.1675 43.6962 30.1077 43.4277 30.1077C43.1593 30.1077 42.9193 30.1675 42.708 30.2871C42.4966 30.4067 42.3167 30.5736 42.1681 30.7876C42.0225 30.9985 41.9096 31.2504 41.8297 31.5431C41.7525 31.8327 41.714 32.1507 41.714 32.4969C41.714 32.8432 41.7525 33.1627 41.8297 33.4554C41.9096 33.745 42.0225 33.9969 42.1681 34.2109C42.3167 34.4218 42.4966 34.5871 42.708 34.7067C42.9193 34.8263 43.1593 34.8861 43.4277 34.8861Z" fill="#4E2D2D"/>
<path d="M51.4995 28.9461C51.5024 29.2106 51.4609 29.4278 51.3753 29.5977C51.2896 29.7646 51.1753 29.8999 51.0325 30.0038C50.8926 30.1045 50.7297 30.1785 50.5441 30.2257C50.3613 30.2698 50.1728 30.2997 49.9786 30.3155C49.8443 30.328 49.7058 30.3485 49.563 30.3768C49.4202 30.402 49.2802 30.4429 49.1431 30.4996C49.006 30.5531 48.876 30.6255 48.7532 30.7168C48.6304 30.8049 48.5204 30.9151 48.4233 31.0473C48.3262 31.1795 48.2462 31.3369 48.1834 31.5195C48.1206 31.7021 48.082 31.9161 48.0677 32.1617C48.1134 31.998 48.1863 31.8437 48.2862 31.6989C48.3862 31.551 48.5104 31.4235 48.659 31.3165C48.8103 31.2063 48.9846 31.1197 49.1817 31.0568C49.3787 30.9907 49.5972 30.9576 49.8372 30.9576C50.1571 30.9576 50.4456 31.0174 50.7026 31.137C50.9597 31.2535 51.1782 31.4188 51.3581 31.6328C51.5381 31.8469 51.6752 32.105 51.7694 32.4072C51.8665 32.7094 51.9151 33.0446 51.9151 33.4129C51.9151 33.8222 51.8594 34.1936 51.748 34.5273C51.6395 34.861 51.4824 35.1474 51.2767 35.3867C51.0739 35.6227 50.8254 35.8069 50.5312 35.9391C50.237 36.0682 49.9057 36.1327 49.5373 36.1327C49.0003 36.1327 48.5561 36.0115 48.2048 35.7691C47.8535 35.5267 47.5836 35.1317 47.3951 34.5839C47.3322 34.3982 47.2837 34.2015 47.2494 33.9937C47.2151 33.786 47.1894 33.5908 47.1723 33.4082C47.158 33.2256 47.1494 33.0667 47.1466 32.9313C47.1437 32.796 47.1423 32.7063 47.1423 32.6622C47.1423 32.1711 47.1937 31.7225 47.2965 31.3165C47.3994 30.9073 47.5622 30.5515 47.785 30.2493C48.0106 29.9472 48.2991 29.7032 48.6504 29.5175C49.0046 29.3317 49.433 29.2137 49.9357 29.1633C50.0957 29.1476 50.2085 29.1193 50.2742 29.0783C50.3427 29.0343 50.3856 28.9902 50.4027 28.9461H51.4995ZM48.4148 33.3941C48.4148 33.5892 48.4333 33.7828 48.4705 33.9748C48.5104 34.1637 48.5747 34.3337 48.6632 34.4848C48.7518 34.6327 48.8675 34.7524 49.0103 34.8436C49.1531 34.9349 49.3288 34.9806 49.5373 34.9806C49.7572 34.9806 49.9386 34.9365 50.0814 34.8484C50.227 34.7571 50.3427 34.639 50.4284 34.4942C50.5141 34.3463 50.5741 34.1779 50.6084 33.989C50.6426 33.797 50.6598 33.5987 50.6598 33.3941C50.6598 33.1926 50.6398 33.0037 50.5998 32.8274C50.5598 32.6512 50.497 32.4985 50.4113 32.3694C50.3256 32.2372 50.2142 32.1349 50.0771 32.0625C49.94 31.987 49.7743 31.9492 49.5801 31.9492C49.3716 31.9492 49.1931 31.9885 49.0446 32.0672C48.8989 32.1428 48.7789 32.2467 48.6847 32.3789C48.5904 32.5111 48.5219 32.6653 48.479 32.8416C48.4362 33.0147 48.4148 33.1989 48.4148 33.3941Z" fill="#4E2D2D"/>
<path d="M52.5063 33.3941C52.5063 32.9974 52.5606 32.6323 52.6691 32.2986C52.7805 31.9649 52.9391 31.6785 53.1447 31.4392C53.3532 31.1969 53.6046 31.008 53.8988 30.8726C54.193 30.7373 54.5243 30.6696 54.8927 30.6696C55.2669 30.6696 55.6011 30.7373 55.8953 30.8726C56.1923 31.008 56.4423 31.1969 56.645 31.4392C56.8507 31.6785 57.0078 31.9649 57.1163 32.2986C57.2249 32.6323 57.2791 32.9974 57.2791 33.3941C57.2791 33.7907 57.2249 34.1558 57.1163 34.4895C57.0078 34.8232 56.8507 35.1112 56.645 35.3536C56.4423 35.596 56.1923 35.7849 55.8953 35.9202C55.6011 36.0556 55.2669 36.1232 54.8927 36.1232C54.5243 36.1232 54.193 36.0556 53.8988 35.9202C53.6046 35.7849 53.3532 35.596 53.1447 35.3536C52.9391 35.1112 52.7805 34.8232 52.6691 34.4895C52.5606 34.1558 52.5063 33.7907 52.5063 33.3941ZM53.7702 33.3941C53.7702 33.5892 53.7888 33.7828 53.8259 33.9748C53.8659 34.1637 53.9302 34.3337 54.0187 34.4848C54.1073 34.6327 54.2229 34.7524 54.3658 34.8436C54.5086 34.9349 54.6842 34.9806 54.8927 34.9806C55.1098 34.9806 55.2898 34.9365 55.4326 34.8484C55.5782 34.7571 55.6939 34.639 55.7796 34.4942C55.8653 34.3463 55.9253 34.1779 55.9595 33.989C55.9967 33.797 56.0152 33.5987 56.0152 33.3941C56.0152 33.1926 55.9967 32.9959 55.9595 32.8038C55.9253 32.6118 55.8653 32.4434 55.7796 32.2986C55.6939 32.1507 55.5782 32.0326 55.4326 31.9445C55.2898 31.8532 55.1098 31.8075 54.8927 31.8075C54.6842 31.8075 54.5086 31.8532 54.3658 31.9445C54.2229 32.0358 54.1073 32.1569 54.0187 32.308C53.9302 32.456 53.8659 32.626 53.8259 32.818C53.7888 33.0069 53.7702 33.1989 53.7702 33.3941Z" fill="#4E2D2D"/>
<path d="M58.1232 30.8207H59.2799V31.5573H59.2971C59.3799 31.403 59.467 31.2708 59.5584 31.1607C59.6498 31.0473 59.7512 30.9545 59.8626 30.8821C59.974 30.8097 60.0968 30.7562 60.2311 30.7215C60.3682 30.6869 60.5224 30.6696 60.6938 30.6696C60.8366 30.6696 60.9837 30.6885 61.1351 30.7262C61.2865 30.764 61.4336 30.8254 61.5764 30.9104C61.722 30.9922 61.8591 31.1008 61.9877 31.2362C62.1162 31.3684 62.229 31.5321 62.3261 31.7273C62.4232 31.9224 62.5004 32.1507 62.5575 32.4119C62.6146 32.6701 62.6432 32.9659 62.6432 33.2996C62.6432 33.7151 62.6018 34.096 62.5189 34.4423C62.439 34.7886 62.3161 35.086 62.1505 35.3347C61.9877 35.5834 61.7806 35.777 61.5292 35.9155C61.2807 36.054 60.988 36.1232 60.6509 36.1232C60.5338 36.1232 60.4153 36.1107 60.2953 36.0855C60.1754 36.0603 60.0583 36.0178 59.944 35.958C59.8298 35.8982 59.7212 35.8179 59.6184 35.7172C59.5184 35.6133 59.4299 35.4842 59.3528 35.33H59.3356V37.96H58.1232V30.8207ZM60.3339 31.8689C60.1397 31.8689 59.9754 31.9146 59.8412 32.0059C59.7098 32.0971 59.6027 32.2152 59.5199 32.36C59.4399 32.5048 59.3813 32.6685 59.3442 32.8511C59.3071 33.0336 59.2885 33.2146 59.2885 33.3941C59.2885 33.4916 59.2928 33.5987 59.3014 33.7151C59.3128 33.8285 59.3328 33.9449 59.3613 34.0646C59.3899 34.181 59.4285 34.2943 59.477 34.4045C59.5284 34.5147 59.5927 34.6123 59.6698 34.6973C59.7469 34.7823 59.8398 34.8515 59.9483 34.905C60.0568 34.9554 60.1854 34.9806 60.3339 34.9806C60.4824 34.9806 60.611 34.9554 60.7195 34.905C60.828 34.8515 60.9209 34.7823 60.998 34.6973C61.0751 34.6123 61.1379 34.5147 61.1865 34.4045C61.2379 34.2943 61.2779 34.181 61.3065 34.0646C61.335 33.9449 61.3536 33.8285 61.3622 33.7151C61.3736 33.5987 61.3793 33.4916 61.3793 33.3941C61.3793 33.2146 61.3607 33.0336 61.3236 32.8511C61.2865 32.6685 61.2265 32.5048 61.1436 32.36C61.0637 32.2152 60.9566 32.0971 60.8223 32.0059C60.6881 31.9146 60.5253 31.8689 60.3339 31.8689Z" fill="#4E2D2D"/>
<path d="M66.0921 35.8824C66.0007 36.1783 65.9179 36.4349 65.8436 36.6521C65.7694 36.8724 65.6951 37.0613 65.6208 37.2187C65.5494 37.3792 65.4723 37.5099 65.3895 37.6106C65.3095 37.7145 65.2152 37.7963 65.1067 37.8561C64.9982 37.916 64.8711 37.9569 64.7254 37.9789C64.5797 38.0041 64.4069 38.0167 64.207 38.0167C64.127 38.0167 64.0513 38.0135 63.9799 38.0072C63.9114 38.0041 63.8285 37.9978 63.7314 37.9884V36.9071C63.78 36.9134 63.84 36.9197 63.9114 36.926C63.9828 36.9322 64.0427 36.9354 64.0913 36.9354C64.2198 36.9354 64.3284 36.9086 64.4169 36.8551C64.5055 36.8016 64.5754 36.7371 64.6268 36.6615C64.6811 36.5891 64.7197 36.5136 64.7425 36.4349C64.7654 36.3562 64.7768 36.2901 64.7768 36.2366L63.0673 30.8207H64.4255L65.428 34.6123H65.4452L66.4006 30.8207H67.6987L66.0921 35.8824Z" fill="#4E2D2D"/>
<path d="M68.0029 34.8861H68.4871C68.6013 34.6501 68.6956 34.4029 68.7698 34.1448C68.847 33.8835 68.9084 33.6207 68.9541 33.3563C68.9998 33.0919 69.0326 32.8337 69.0526 32.5819C69.0726 32.3269 69.0869 32.0877 69.0955 31.8642C69.104 31.6407 69.1069 31.4392 69.104 31.2598C69.104 31.0804 69.1055 30.934 69.1083 30.8207H72.7586V34.8861H73.3456V37.2045H72.2059V35.9674H69.1426V37.2045H68.0029V34.8861ZM71.5504 34.8861V31.9067H70.1623C70.1623 32.0011 70.1608 32.1176 70.158 32.2561C70.158 32.3946 70.1523 32.5489 70.1408 32.7188C70.1323 32.8857 70.118 33.0635 70.098 33.2524C70.0809 33.4413 70.0537 33.6301 70.0166 33.819C69.9823 34.0079 69.9395 34.1936 69.8881 34.3762C69.8395 34.5588 69.7781 34.7287 69.7038 34.8861H71.5504Z" fill="#4E2D2D"/>
<path d="M73.7397 33.3941C73.7397 32.9974 73.794 32.6323 73.9025 32.2986C74.0139 31.9649 74.1724 31.6785 74.3781 31.4392C74.5866 31.1969 74.838 31.008 75.1321 30.8726C75.4263 30.7373 75.7577 30.6696 76.1261 30.6696C76.5003 30.6696 76.8345 30.7373 77.1287 30.8726C77.4257 31.008 77.6756 31.1969 77.8784 31.4392C78.0841 31.6785 78.2412 31.9649 78.3497 32.2986C78.4583 32.6323 78.5125 32.9974 78.5125 33.3941C78.5125 33.7907 78.4583 34.1558 78.3497 34.4895C78.2412 34.8232 78.0841 35.1112 77.8784 35.3536C77.6756 35.596 77.4257 35.7849 77.1287 35.9202C76.8345 36.0556 76.5003 36.1232 76.1261 36.1232C75.7577 36.1232 75.4263 36.0556 75.1321 35.9202C74.838 35.7849 74.5866 35.596 74.3781 35.3536C74.1724 35.1112 74.0139 34.8232 73.9025 34.4895C73.794 34.1558 73.7397 33.7907 73.7397 33.3941ZM75.0036 33.3941C75.0036 33.5892 75.0222 33.7828 75.0593 33.9748C75.0993 34.1637 75.1636 34.3337 75.2521 34.4848C75.3407 34.6327 75.4563 34.7524 75.5991 34.8436C75.742 34.9349 75.9176 34.9806 76.1261 34.9806C76.3432 34.9806 76.5231 34.9365 76.666 34.8484C76.8116 34.7571 76.9273 34.639 77.013 34.4942C77.0987 34.3463 77.1587 34.1779 77.1929 33.989C77.2301 33.797 77.2486 33.5987 77.2486 33.3941C77.2486 33.1926 77.2301 32.9959 77.1929 32.8038C77.1587 32.6118 77.0987 32.4434 77.013 32.2986C76.9273 32.1507 76.8116 32.0326 76.666 31.9445C76.5231 31.8532 76.3432 31.8075 76.1261 31.8075C75.9176 31.8075 75.742 31.8532 75.5991 31.9445C75.4563 32.0358 75.3407 32.1569 75.2521 32.308C75.1636 32.456 75.0993 32.626 75.0593 32.818C75.0222 33.0069 75.0036 33.1989 75.0036 33.3941Z" fill="#4E2D2D"/>
<path d="M80.6376 32.8416H81.5716C81.7087 32.8416 81.8229 32.8306 81.9143 32.8086C82.0057 32.7834 82.0771 32.7487 82.1285 32.7047C82.1828 32.6575 82.2199 32.6008 82.2399 32.5347C82.2628 32.4654 82.2742 32.3852 82.2742 32.2939C82.2742 32.2183 82.2628 32.1491 82.2399 32.0861C82.2199 32.02 82.1842 31.9649 82.1328 31.9209C82.0814 31.8736 82.0129 31.8374 81.9272 31.8123C81.8415 31.7839 81.7344 31.7698 81.6058 31.7698H80.6376V32.8416ZM79.4251 30.8207H81.8415C82.0557 30.8207 82.2614 30.8411 82.4584 30.8821C82.6584 30.923 82.834 30.9954 82.9854 31.0993C83.1368 31.2 83.2568 31.3385 83.3453 31.5148C83.4367 31.6879 83.4824 31.9083 83.4824 32.1758C83.4824 32.3301 83.4667 32.4639 83.4353 32.5772C83.4067 32.6905 83.3667 32.7881 83.3153 32.8699C83.2639 32.9486 83.2039 33.0163 83.1354 33.073C83.0697 33.1265 83.0011 33.1721 82.9297 33.2099C83.1639 33.3012 83.3424 33.4476 83.4653 33.649C83.5881 33.8473 83.6495 34.085 83.6495 34.362C83.6495 34.6044 83.6109 34.8248 83.5338 35.0231C83.4596 35.2182 83.3524 35.3867 83.2125 35.5283C83.0754 35.6668 82.9069 35.7754 82.7069 35.8541C82.5098 35.9297 82.2885 35.9674 82.0429 35.9674H79.4251V30.8207ZM80.6376 35.0184H81.5716C81.7458 35.0184 81.8858 34.9979 81.9914 34.957C82.1 34.916 82.1828 34.8641 82.2399 34.8011C82.2999 34.7382 82.3385 34.6689 82.3556 34.5934C82.3756 34.5178 82.3856 34.447 82.3856 34.3809C82.3856 34.255 82.3699 34.1511 82.3385 34.0693C82.3099 33.9843 82.2628 33.9166 82.1971 33.8662C82.1343 33.8159 82.05 33.7812 81.9443 33.7624C81.8415 33.7435 81.7172 33.734 81.5716 33.734H80.6376V35.0184Z" fill="#4E2D2D"/>
<path d="M88.4009 34.9522C88.4009 35.1065 88.408 35.234 88.4223 35.3347C88.4394 35.4323 88.4609 35.511 88.4866 35.5708C88.5123 35.6275 88.5408 35.67 88.5722 35.6983C88.6065 35.7235 88.6422 35.7424 88.6794 35.755V35.9674H87.3383C87.3155 35.9076 87.2898 35.8289 87.2612 35.7313C87.2355 35.6306 87.2227 35.5094 87.2227 35.3678C87.1284 35.4748 87.0356 35.5739 86.9442 35.6652C86.8556 35.7565 86.7557 35.8368 86.6443 35.906C86.5329 35.9722 86.4044 36.0241 86.2587 36.0619C86.113 36.1028 85.9374 36.1232 85.7317 36.1232C85.5232 36.1232 85.3304 36.0886 85.1533 36.0194C84.9791 35.9533 84.8277 35.8541 84.6992 35.7219C84.5706 35.5897 84.4707 35.4244 84.3993 35.2261C84.3279 35.0278 84.2922 34.798 84.2922 34.5367C84.2922 34.3258 84.3221 34.1307 84.3821 33.9512C84.4421 33.7687 84.5264 33.6097 84.6349 33.4743C84.7463 33.3358 84.8805 33.2225 85.0376 33.1344C85.1976 33.0431 85.3761 32.9817 85.5732 32.9502L86.76 32.7566C86.8028 32.7503 86.8485 32.7409 86.8971 32.7283C86.9485 32.7157 86.9956 32.6952 87.0384 32.6669C87.0813 32.6354 87.117 32.5945 87.1455 32.5441C87.1741 32.4906 87.1884 32.4198 87.1884 32.3317C87.1884 32.2467 87.1755 32.1695 87.1498 32.1003C87.127 32.0279 87.087 31.9665 87.0299 31.9161C86.9727 31.8626 86.8956 31.8217 86.7985 31.7934C86.7043 31.765 86.5857 31.7509 86.4429 31.7509C86.2801 31.7509 86.1487 31.7698 86.0487 31.8075C85.9516 31.8422 85.8745 31.8925 85.8174 31.9586C85.7603 32.0216 85.7188 32.0971 85.6931 32.1853C85.6674 32.2703 85.6489 32.3616 85.6374 32.4591H84.425C84.425 32.3962 84.4335 32.3096 84.4507 32.1994C84.4707 32.0861 84.5049 31.9634 84.5535 31.8311C84.6049 31.6989 84.6749 31.5652 84.7634 31.4298C84.8548 31.2944 84.9734 31.1717 85.119 31.0615C85.2676 30.9482 85.4475 30.8553 85.6589 30.7829C85.8702 30.7105 86.123 30.6727 86.4172 30.6696C86.8342 30.6696 87.1713 30.7168 87.4283 30.8112C87.6882 30.9025 87.8896 31.0237 88.0324 31.1748C88.1781 31.3228 88.2752 31.4896 88.3238 31.6753C88.3752 31.8579 88.4009 32.0405 88.4009 32.2231V34.9522ZM87.1884 33.4554C87.1141 33.4995 87.0399 33.5404 86.9656 33.5782C86.8913 33.6128 86.7928 33.6427 86.67 33.6679L86.3487 33.734C86.2087 33.7624 86.0859 33.7954 85.9802 33.8332C85.8745 33.871 85.786 33.9213 85.7146 33.9843C85.646 34.0441 85.5932 34.1181 85.556 34.2062C85.5218 34.2943 85.5046 34.4045 85.5046 34.5367C85.5046 34.6469 85.5203 34.7429 85.5518 34.8248C85.5832 34.9035 85.626 34.9696 85.6803 35.0231C85.7374 35.0734 85.8031 35.1112 85.8774 35.1364C85.9516 35.1616 86.0316 35.1742 86.1173 35.1742C86.163 35.1742 86.2215 35.1694 86.293 35.16C86.3644 35.1474 86.4401 35.1254 86.52 35.0939C86.6 35.0624 86.68 35.0199 86.76 34.9664C86.8399 34.9098 86.9113 34.8373 86.9742 34.7492C87.037 34.6611 87.0884 34.554 87.1284 34.4281C87.1684 34.2991 87.1884 34.148 87.1884 33.9748V33.4554Z" fill="#4E2D2D"/>
<path d="M89.5105 30.8207H90.723V32.6811H92.5053V30.8207H93.7135V35.9674H92.5053V33.7624H90.723V35.9674H89.5105V30.8207Z" fill="#4E2D2D"/>
<path d="M94.8746 30.8207H96.087V33.9937H96.1042L97.8051 30.8207H99.0775V35.9674H97.8694V32.8652H97.8479L96.1984 35.9674H94.8746V30.8207Z" fill="#4E2D2D"/>
<path d="M101.108 33.8096C101.108 33.8568 101.113 33.9197 101.121 33.9984C101.13 34.0771 101.147 34.1621 101.173 34.2534C101.198 34.3447 101.235 34.4376 101.284 34.532C101.333 34.6233 101.397 34.7067 101.477 34.7823C101.56 34.8578 101.66 34.9192 101.777 34.9664C101.897 35.0136 102.039 35.0372 102.205 35.0372C102.291 35.0372 102.375 35.0246 102.458 34.9995C102.544 34.9711 102.622 34.9318 102.694 34.8814C102.765 34.8279 102.826 34.7649 102.878 34.6925C102.932 34.617 102.971 34.532 102.993 34.4376H104.249C104.249 34.532 104.23 34.6406 104.193 34.7634C104.156 34.883 104.099 35.0058 104.022 35.1317C103.947 35.2544 103.853 35.3756 103.739 35.4953C103.625 35.6149 103.489 35.7219 103.332 35.8163C103.175 35.9076 102.996 35.9816 102.796 36.0383C102.599 36.0949 102.379 36.1232 102.137 36.1232C101.825 36.1232 101.532 36.0713 101.258 35.9674C100.987 35.8667 100.748 35.7062 100.543 35.4858C100.34 35.2623 100.18 34.9743 100.063 34.6217C99.9458 34.2692 99.8873 33.8411 99.8873 33.3374C99.8873 32.988 99.9287 32.6527 100.012 32.3317C100.097 32.0074 100.229 31.7225 100.406 31.477C100.586 31.2315 100.814 31.0363 101.091 30.8915C101.371 30.7436 101.707 30.6696 102.098 30.6696C102.512 30.6696 102.861 30.7451 103.143 30.8962C103.426 31.0442 103.653 31.2551 103.825 31.529C103.999 31.8028 104.123 32.1333 104.197 32.5205C104.272 32.9077 104.309 33.3374 104.309 33.8096H101.108ZM103.049 32.9219C103.049 32.6952 103.018 32.5064 102.955 32.3553C102.895 32.2042 102.818 32.0845 102.724 31.9964C102.632 31.9051 102.531 31.8422 102.419 31.8075C102.308 31.7698 102.201 31.7509 102.098 31.7509C101.998 31.7509 101.892 31.7698 101.781 31.8075C101.67 31.8422 101.567 31.9051 101.473 31.9964C101.381 32.0845 101.304 32.2042 101.241 32.3553C101.181 32.5064 101.151 32.6952 101.151 32.9219H103.049Z" fill="#4E2D2D"/>
<path d="M107.565 30.8207H108.777V33.9937H108.795L110.495 30.8207H111.768V35.9674H110.56V32.8652H110.538L108.889 35.9674H107.565V30.8207Z" fill="#4E2D2D"/>
<path d="M116.382 31.9067H114.968V30.8207H119.004V31.9067H117.59V35.9674H116.382V31.9067Z" fill="#4E2D2D"/>
<path d="M119.48 33.3941C119.48 32.9974 119.534 32.6323 119.643 32.2986C119.754 31.9649 119.912 31.6785 120.118 31.4392C120.327 31.1969 120.578 31.008 120.872 30.8726C121.166 30.7373 121.498 30.6696 121.866 30.6696C122.24 30.6696 122.575 30.7373 122.869 30.8726C123.166 31.008 123.416 31.1969 123.618 31.4392C123.824 31.6785 123.981 31.9649 124.09 32.2986C124.198 32.6323 124.253 32.9974 124.253 33.3941C124.253 33.7907 124.198 34.1558 124.09 34.4895C123.981 34.8232 123.824 35.1112 123.618 35.3536C123.416 35.596 123.166 35.7849 122.869 35.9202C122.575 36.0556 122.24 36.1232 121.866 36.1232C121.498 36.1232 121.166 36.0556 120.872 35.9202C120.578 35.7849 120.327 35.596 120.118 35.3536C119.912 35.1112 119.754 34.8232 119.643 34.4895C119.534 34.1558 119.48 33.7907 119.48 33.3941ZM120.744 33.3941C120.744 33.5892 120.762 33.7828 120.799 33.9748C120.839 34.1637 120.904 34.3337 120.992 34.4848C121.081 34.6327 121.196 34.7524 121.339 34.8436C121.482 34.9349 121.658 34.9806 121.866 34.9806C122.083 34.9806 122.263 34.9365 122.406 34.8484C122.552 34.7571 122.667 34.639 122.753 34.4942C122.839 34.3463 122.899 34.1779 122.933 33.989C122.97 33.797 122.989 33.5987 122.989 33.3941C122.989 33.1926 122.97 32.9959 122.933 32.8038C122.899 32.6118 122.839 32.4434 122.753 32.2986C122.667 32.1507 122.552 32.0326 122.406 31.9445C122.263 31.8532 122.083 31.8075 121.866 31.8075C121.658 31.8075 121.482 31.8532 121.339 31.9445C121.196 32.0358 121.081 32.1569 120.992 32.308C120.904 32.456 120.839 32.626 120.799 32.818C120.762 33.0069 120.744 33.1989 120.744 33.3941Z" fill="#4E2D2D"/>
<path d="M126.378 32.8416H127.312C127.449 32.8416 127.563 32.8306 127.654 32.8086C127.746 32.7834 127.817 32.7487 127.869 32.7047C127.923 32.6575 127.96 32.6008 127.98 32.5347C128.003 32.4654 128.014 32.3852 128.014 32.2939C128.014 32.2183 128.003 32.1491 127.98 32.0861C127.96 32.02 127.924 31.9649 127.873 31.9209C127.821 31.8736 127.753 31.8374 127.667 31.8123C127.582 31.7839 127.474 31.7698 127.346 31.7698H126.378V32.8416ZM125.165 30.8207H127.582C127.796 30.8207 128.001 30.8411 128.198 30.8821C128.398 30.923 128.574 30.9954 128.725 31.0993C128.877 31.2 128.997 31.3385 129.085 31.5148C129.177 31.6879 129.222 31.9083 129.222 32.1758C129.222 32.3301 129.207 32.4639 129.175 32.5772C129.147 32.6905 129.107 32.7881 129.055 32.8699C129.004 32.9486 128.944 33.0163 128.875 33.073C128.81 33.1265 128.741 33.1721 128.67 33.2099C128.904 33.3012 129.082 33.4476 129.205 33.649C129.328 33.8473 129.39 34.085 129.39 34.362C129.39 34.6044 129.351 34.8248 129.274 35.0231C129.2 35.2182 129.092 35.3867 128.953 35.5283C128.815 35.6668 128.647 35.7754 128.447 35.8541C128.25 35.9297 128.029 35.9674 127.783 35.9674H125.165V30.8207ZM126.378 35.0184H127.312C127.486 35.0184 127.626 34.9979 127.731 34.957C127.84 34.916 127.923 34.8641 127.98 34.8011C128.04 34.7382 128.079 34.6689 128.096 34.5934C128.116 34.5178 128.126 34.447 128.126 34.3809C128.126 34.255 128.11 34.1511 128.079 34.0693C128.05 33.9843 128.003 33.9166 127.937 33.8662C127.874 33.8159 127.79 33.7812 127.684 33.7624C127.582 33.7435 127.457 33.734 127.312 33.734H126.378V35.0184Z" fill="#4E2D2D"/>
<path d="M134.141 34.9522C134.141 35.1065 134.148 35.234 134.162 35.3347C134.179 35.4323 134.201 35.511 134.227 35.5708C134.252 35.6275 134.281 35.67 134.312 35.6983C134.347 35.7235 134.382 35.7424 134.419 35.755V35.9674H133.078C133.056 35.9076 133.03 35.8289 133.001 35.7313C132.976 35.6306 132.963 35.5094 132.963 35.3678C132.868 35.4748 132.776 35.5739 132.684 35.6652C132.596 35.7565 132.496 35.8368 132.384 35.906C132.273 35.9722 132.144 36.0241 131.999 36.0619C131.853 36.1028 131.677 36.1232 131.472 36.1232C131.263 36.1232 131.07 36.0886 130.893 36.0194C130.719 35.9533 130.568 35.8541 130.439 35.7219C130.311 35.5897 130.211 35.4244 130.139 35.2261C130.068 35.0278 130.032 34.798 130.032 34.5367C130.032 34.3258 130.062 34.1307 130.122 33.9512C130.182 33.7687 130.266 33.6097 130.375 33.4743C130.486 33.3358 130.621 33.2225 130.778 33.1344C130.938 33.0431 131.116 32.9817 131.313 32.9502L132.5 32.7566C132.543 32.7503 132.589 32.7409 132.637 32.7283C132.688 32.7157 132.736 32.6952 132.778 32.6669C132.821 32.6354 132.857 32.5945 132.886 32.5441C132.914 32.4906 132.928 32.4198 132.928 32.3317C132.928 32.2467 132.916 32.1695 132.89 32.1003C132.867 32.0279 132.827 31.9665 132.77 31.9161C132.713 31.8626 132.636 31.8217 132.539 31.7934C132.444 31.765 132.326 31.7509 132.183 31.7509C132.02 31.7509 131.889 31.7698 131.789 31.8075C131.692 31.8422 131.615 31.8925 131.557 31.9586C131.5 32.0216 131.459 32.0971 131.433 32.1853C131.407 32.2703 131.389 32.3616 131.377 32.4591H130.165C130.165 32.3962 130.174 32.3096 130.191 32.1994C130.211 32.0861 130.245 31.9634 130.294 31.8311C130.345 31.6989 130.415 31.5652 130.503 31.4298C130.595 31.2944 130.713 31.1717 130.859 31.0615C131.008 30.9482 131.188 30.8553 131.399 30.7829C131.61 30.7105 131.863 30.6727 132.157 30.6696C132.574 30.6696 132.911 30.7168 133.168 30.8112C133.428 30.9025 133.63 31.0237 133.772 31.1748C133.918 31.3228 134.015 31.4896 134.064 31.6753C134.115 31.8579 134.141 32.0405 134.141 32.2231V34.9522ZM132.928 33.4554C132.854 33.4995 132.78 33.5404 132.706 33.5782C132.631 33.6128 132.533 33.6427 132.41 33.6679L132.089 33.734C131.949 33.7624 131.826 33.7954 131.72 33.8332C131.615 33.871 131.526 33.9213 131.455 33.9843C131.386 34.0441 131.333 34.1181 131.296 34.2062C131.262 34.2943 131.245 34.4045 131.245 34.5367C131.245 34.6469 131.26 34.7429 131.292 34.8248C131.323 34.9035 131.366 34.9696 131.42 35.0231C131.477 35.0734 131.543 35.1112 131.617 35.1364C131.692 35.1616 131.772 35.1742 131.857 35.1742C131.903 35.1742 131.962 35.1694 132.033 35.16C132.104 35.1474 132.18 35.1254 132.26 35.0939C132.34 35.0624 132.42 35.0199 132.5 34.9664C132.58 34.9098 132.651 34.8373 132.714 34.7492C132.777 34.6611 132.828 34.554 132.868 34.4281C132.908 34.2991 132.928 34.148 132.928 33.9748V33.4554Z" fill="#4E2D2D"/>
<path d="M135.216 30.8207H136.373V31.5573H136.39C136.473 31.403 136.56 31.2708 136.652 31.1607C136.743 31.0473 136.844 30.9545 136.956 30.8821C137.067 30.8097 137.19 30.7562 137.324 30.7215C137.461 30.6869 137.616 30.6696 137.787 30.6696C137.93 30.6696 138.077 30.6885 138.228 30.7262C138.38 30.764 138.527 30.8254 138.669 30.9104C138.815 30.9922 138.952 31.1008 139.081 31.2362C139.209 31.3684 139.322 31.5321 139.419 31.7273C139.516 31.9224 139.593 32.1507 139.651 32.4119C139.708 32.6701 139.736 32.9659 139.736 33.2996C139.736 33.7151 139.695 34.096 139.612 34.4423C139.532 34.7886 139.409 35.086 139.244 35.3347C139.081 35.5834 138.874 35.777 138.622 35.9155C138.374 36.054 138.081 36.1232 137.744 36.1232C137.627 36.1232 137.508 36.1107 137.388 36.0855C137.269 36.0603 137.151 36.0178 137.037 35.958C136.923 35.8982 136.814 35.8179 136.712 35.7172C136.612 35.6133 136.523 35.4842 136.446 35.33H136.429V37.96H135.216V30.8207ZM137.427 31.8689C137.233 31.8689 137.069 31.9146 136.934 32.0059C136.803 32.0971 136.696 32.2152 136.613 32.36C136.533 32.5048 136.474 32.6685 136.437 32.8511C136.4 33.0336 136.382 33.2146 136.382 33.3941C136.382 33.4916 136.386 33.5987 136.394 33.7151C136.406 33.8285 136.426 33.9449 136.454 34.0646C136.483 34.181 136.522 34.2943 136.57 34.4045C136.622 34.5147 136.686 34.6123 136.763 34.6973C136.84 34.7823 136.933 34.8515 137.041 34.905C137.15 34.9554 137.279 34.9806 137.427 34.9806C137.576 34.9806 137.704 34.9554 137.813 34.905C137.921 34.8515 138.014 34.7823 138.091 34.6973C138.168 34.6123 138.231 34.5147 138.28 34.4045C138.331 34.2943 138.371 34.181 138.4 34.0646C138.428 33.9449 138.447 33.8285 138.455 33.7151C138.467 33.5987 138.472 33.4916 138.472 33.3941C138.472 33.2146 138.454 33.0336 138.417 32.8511C138.38 32.6685 138.32 32.5048 138.237 32.36C138.157 32.2152 138.05 32.0971 137.915 32.0059C137.781 31.9146 137.618 31.8689 137.427 31.8689Z" fill="#4E2D2D"/>
<path d="M145.297 30.8207H146.51V35.9674H145.297V30.8207ZM140.615 30.8207H141.827V32.6102H142.928C143.217 32.6102 143.474 32.6433 143.699 32.7094C143.928 32.7755 144.121 32.8778 144.278 33.0163C144.435 33.1548 144.555 33.3311 144.638 33.5452C144.72 33.7561 144.762 34.0063 144.762 34.2959C144.762 34.5572 144.728 34.7807 144.659 34.9664C144.591 35.1521 144.502 35.308 144.393 35.4339C144.288 35.5566 144.169 35.6542 144.038 35.7266C143.906 35.7959 143.778 35.8494 143.652 35.8872C143.527 35.9218 143.409 35.9438 143.301 35.9533C143.195 35.9627 143.114 35.9674 143.057 35.9674H140.615V30.8207ZM141.827 34.9617H142.714C142.808 34.9617 142.901 34.9538 142.992 34.9381C143.087 34.9192 143.171 34.8861 143.245 34.8389C143.322 34.7886 143.384 34.7209 143.429 34.6359C143.475 34.5477 143.498 34.4344 143.498 34.2959C143.498 34.1606 143.474 34.0488 143.425 33.9607C143.379 33.8725 143.315 33.8033 143.232 33.7529C143.152 33.7025 143.058 33.6679 142.95 33.649C142.844 33.627 142.731 33.616 142.611 33.616H141.827V34.9617Z" fill="#4E2D2D"/>
<path d="M149.706 34.8861H150.19C150.304 34.6501 150.399 34.4029 150.473 34.1448C150.55 33.8835 150.611 33.6207 150.657 33.3563C150.703 33.0919 150.736 32.8337 150.756 32.5819C150.776 32.3269 150.79 32.0877 150.799 31.8642C150.807 31.6407 150.81 31.4392 150.807 31.2598C150.807 31.0804 150.809 30.934 150.811 30.8207H154.462V34.8861H155.049V37.2045H153.909V35.9674H150.846V37.2045H149.706V34.8861ZM153.254 34.8861V31.9067H151.865C151.865 32.0011 151.864 32.1176 151.861 32.2561C151.861 32.3946 151.855 32.5489 151.844 32.7188C151.835 32.8857 151.821 33.0635 151.801 33.2524C151.784 33.4413 151.757 33.6301 151.72 33.819C151.685 34.0079 151.643 34.1936 151.591 34.3762C151.543 34.5588 151.481 34.7287 151.407 34.8861H153.254Z" fill="#4E2D2D"/>
<path d="M160.173 35.9674H158.965V31.9067H157.534L157.508 32.8652C157.494 33.4035 157.462 33.8757 157.414 34.2818C157.365 34.6878 157.285 35.0278 157.174 35.3017C157.065 35.5724 156.917 35.777 156.728 35.9155C156.543 36.054 156.304 36.1232 156.013 36.1232C155.876 36.1232 155.756 36.1138 155.653 36.0949C155.55 36.0792 155.466 36.0556 155.4 36.0241V34.905C155.44 34.9239 155.49 34.9412 155.55 34.957C155.613 34.9727 155.688 34.9806 155.777 34.9806C155.868 34.9806 155.95 34.9507 156.021 34.8909C156.093 34.8279 156.154 34.7162 156.205 34.5556C156.257 34.3919 156.297 34.1669 156.325 33.8804C156.354 33.5939 156.373 33.2241 156.381 32.7708L156.415 30.8207H160.173V35.9674Z" fill="#4E2D2D"/>
<path d="M165.657 35.9674H164.44V34.074H163.647C163.473 34.074 163.323 34.0819 163.198 34.0976C163.075 34.1102 162.973 34.1432 162.893 34.1968C162.813 34.2471 162.752 34.3227 162.709 34.4234C162.669 34.5241 162.646 34.6611 162.641 34.8342L162.623 35.33C162.618 35.4024 162.609 35.4968 162.598 35.6133C162.589 35.7298 162.562 35.8478 162.516 35.9674H161.235C161.272 35.8982 161.302 35.8321 161.325 35.7691C161.348 35.703 161.365 35.6401 161.377 35.5802C161.391 35.5173 161.401 35.4543 161.407 35.3914C161.415 35.3284 161.422 35.2623 161.428 35.1931L161.488 34.5745C161.502 34.436 161.52 34.3164 161.54 34.2156C161.56 34.1149 161.592 34.0284 161.638 33.956C161.684 33.8804 161.747 33.8159 161.827 33.7624C161.907 33.7088 162.014 33.6601 162.148 33.616C162.105 33.6034 162.056 33.5861 162.002 33.564C161.951 33.5389 161.895 33.5074 161.835 33.4696C161.778 33.4287 161.719 33.3783 161.659 33.3185C161.602 33.2556 161.548 33.1784 161.497 33.0871C161.46 33.0273 161.43 32.9644 161.407 32.8983C161.387 32.829 161.371 32.7629 161.36 32.7C161.348 32.6339 161.341 32.5725 161.338 32.5158C161.335 32.4591 161.334 32.4104 161.334 32.3694C161.334 32.1869 161.354 32.0247 161.394 31.8831C161.434 31.7383 161.485 31.6124 161.548 31.5053C161.611 31.3983 161.682 31.307 161.762 31.2315C161.842 31.1559 161.924 31.0945 162.007 31.0473C162.098 30.9907 162.199 30.9482 162.311 30.9198C162.422 30.8884 162.531 30.8663 162.636 30.8537C162.742 30.838 162.841 30.8286 162.932 30.8254C163.023 30.8223 163.095 30.8207 163.146 30.8207H165.657V35.9674ZM164.44 31.8264H163.463C163.36 31.8264 163.258 31.8296 163.155 31.8359C163.052 31.8422 162.959 31.8673 162.876 31.9114C162.796 31.9523 162.731 32.0184 162.679 32.1097C162.631 32.1979 162.606 32.3238 162.606 32.4875C162.606 32.648 162.631 32.7708 162.679 32.8558C162.731 32.9408 162.795 33.0037 162.872 33.0446C162.952 33.0856 163.04 33.1092 163.138 33.1155C163.235 33.1218 163.332 33.1249 163.429 33.1249H164.44V31.8264Z" fill="#4E2D2D"/>
<path d="M171.989 32.6386C171.966 32.5032 171.935 32.3852 171.895 32.2844C171.855 32.1806 171.802 32.094 171.736 32.0247C171.674 31.9523 171.595 31.8988 171.501 31.8642C171.409 31.8264 171.298 31.8075 171.167 31.8075C170.964 31.8075 170.801 31.8595 170.678 31.9634C170.558 32.0672 170.465 32.1979 170.4 32.3553C170.334 32.5127 170.29 32.6842 170.267 32.8699C170.247 33.0557 170.237 33.2304 170.237 33.3941C170.237 33.564 170.245 33.7435 170.263 33.9323C170.28 34.1181 170.32 34.2896 170.382 34.447C170.445 34.6013 170.538 34.7287 170.661 34.8295C170.784 34.9302 170.952 34.9806 171.167 34.9806C171.306 34.9806 171.428 34.9507 171.531 34.8909C171.634 34.8279 171.719 34.7508 171.788 34.6595C171.856 34.5682 171.906 34.4706 171.938 34.3667C171.972 34.2629 171.989 34.1684 171.989 34.0834H173.253C173.253 34.1684 173.239 34.2786 173.21 34.414C173.184 34.5493 173.14 34.6925 173.077 34.8436C173.015 34.9947 172.93 35.1474 172.825 35.3017C172.722 35.4528 172.592 35.5897 172.435 35.7125C172.28 35.8321 172.099 35.9297 171.891 36.0052C171.682 36.0839 171.441 36.1232 171.167 36.1232C170.809 36.1232 170.494 36.0634 170.22 35.9438C169.948 35.8242 169.72 35.6495 169.534 35.4197C169.351 35.1868 169.211 34.9003 169.114 34.5603C169.02 34.2204 168.973 33.8316 168.973 33.3941C168.973 32.9565 169.024 32.5693 169.127 32.2325C169.233 31.8925 169.381 31.6076 169.573 31.3779C169.764 31.1449 169.994 30.9686 170.263 30.849C170.534 30.7294 170.835 30.6696 171.167 30.6696C171.309 30.6696 171.456 30.6822 171.608 30.7074C171.762 30.7325 171.913 30.7766 172.062 30.8396C172.21 30.8994 172.352 30.9781 172.486 31.0757C172.623 31.1732 172.745 31.296 172.85 31.444C172.959 31.5888 173.047 31.7603 173.116 31.9586C173.187 32.1538 173.233 32.3804 173.253 32.6386H171.989Z" fill="#4E2D2D"/>
<path d="M178.818 30.8207H180.031V35.9674H178.818V30.8207ZM174.136 30.8207H175.348V32.6102H176.449C176.738 32.6102 176.995 32.6433 177.22 32.7094C177.449 32.7755 177.642 32.8778 177.799 33.0163C177.956 33.1548 178.076 33.3311 178.159 33.5452C178.241 33.7561 178.283 34.0063 178.283 34.2959C178.283 34.5572 178.249 34.7807 178.18 34.9664C178.111 35.1521 178.023 35.308 177.914 35.4339C177.809 35.5566 177.69 35.6542 177.559 35.7266C177.427 35.7959 177.299 35.8494 177.173 35.8872C177.048 35.9218 176.93 35.9438 176.822 35.9533C176.716 35.9627 176.635 35.9674 176.578 35.9674H174.136V30.8207ZM175.348 34.9617H176.235C176.329 34.9617 176.422 34.9538 176.513 34.9381C176.608 34.9192 176.692 34.8861 176.766 34.8389C176.843 34.7886 176.905 34.7209 176.95 34.6359C176.996 34.5477 177.019 34.4344 177.019 34.2959C177.019 34.1606 176.995 34.0488 176.946 33.9607C176.9 33.8725 176.836 33.8033 176.753 33.7529C176.673 33.7025 176.579 33.6679 176.471 33.649C176.365 33.627 176.252 33.616 176.132 33.616H175.348V34.9617Z" fill="#4E2D2D"/>
<path d="M181.153 30.8207H182.31V31.5573H182.327C182.41 31.403 182.497 31.2708 182.589 31.1607C182.68 31.0473 182.781 30.9545 182.893 30.8821C183.004 30.8097 183.127 30.7562 183.261 30.7215C183.398 30.6869 183.553 30.6696 183.724 30.6696C183.867 30.6696 184.014 30.6885 184.165 30.7262C184.317 30.764 184.464 30.8254 184.607 30.9104C184.752 30.9922 184.889 31.1008 185.018 31.2362C185.146 31.3684 185.259 31.5321 185.356 31.7273C185.453 31.9224 185.531 32.1507 185.588 32.4119C185.645 32.6701 185.673 32.9659 185.673 33.2996C185.673 33.7151 185.632 34.096 185.549 34.4423C185.469 34.7886 185.346 35.086 185.181 35.3347C185.018 35.5834 184.811 35.777 184.559 35.9155C184.311 36.054 184.018 36.1232 183.681 36.1232C183.564 36.1232 183.446 36.1107 183.326 36.0855C183.206 36.0603 183.089 36.0178 182.974 35.958C182.86 35.8982 182.751 35.8179 182.649 35.7172C182.549 35.6133 182.46 35.4842 182.383 35.33H182.366V37.96H181.153V30.8207ZM183.364 31.8689C183.17 31.8689 183.006 31.9146 182.871 32.0059C182.74 32.0971 182.633 32.2152 182.55 32.36C182.47 32.5048 182.412 32.6685 182.374 32.8511C182.337 33.0336 182.319 33.2146 182.319 33.3941C182.319 33.4916 182.323 33.5987 182.332 33.7151C182.343 33.8285 182.363 33.9449 182.392 34.0646C182.42 34.181 182.459 34.2943 182.507 34.4045C182.559 34.5147 182.623 34.6123 182.7 34.6973C182.777 34.7823 182.87 34.8515 182.979 34.905C183.087 34.9554 183.216 34.9806 183.364 34.9806C183.513 34.9806 183.641 34.9554 183.75 34.905C183.858 34.8515 183.951 34.7823 184.028 34.6973C184.105 34.6123 184.168 34.5147 184.217 34.4045C184.268 34.2943 184.308 34.181 184.337 34.0646C184.365 33.9449 184.384 33.8285 184.392 33.7151C184.404 33.5987 184.41 33.4916 184.41 33.3941C184.41 33.2146 184.391 33.0336 184.354 32.8511C184.317 32.6685 184.257 32.5048 184.174 32.36C184.094 32.2152 183.987 32.0971 183.853 32.0059C183.718 31.9146 183.556 31.8689 183.364 31.8689Z" fill="#4E2D2D"/>
<path d="M186.273 33.3941C186.273 32.9974 186.327 32.6323 186.436 32.2986C186.547 31.9649 186.706 31.6785 186.912 31.4392C187.12 31.1969 187.371 31.008 187.666 30.8726C187.96 30.7373 188.291 30.6696 188.66 30.6696C189.034 30.6696 189.368 30.7373 189.662 30.8726C189.959 31.008 190.209 31.1969 190.412 31.4392C190.618 31.6785 190.775 31.9649 190.883 32.2986C190.992 32.6323 191.046 32.9974 191.046 33.3941C191.046 33.7907 190.992 34.1558 190.883 34.4895C190.775 34.8232 190.618 35.1112 190.412 35.3536C190.209 35.596 189.959 35.7849 189.662 35.9202C189.368 36.0556 189.034 36.1232 188.66 36.1232C188.291 36.1232 187.96 36.0556 187.666 35.9202C187.371 35.7849 187.12 35.596 186.912 35.3536C186.706 35.1112 186.547 34.8232 186.436 34.4895C186.327 34.1558 186.273 33.7907 186.273 33.3941ZM187.537 33.3941C187.537 33.5892 187.556 33.7828 187.593 33.9748C187.633 34.1637 187.697 34.3337 187.786 34.4848C187.874 34.6327 187.99 34.7524 188.133 34.8436C188.275 34.9349 188.451 34.9806 188.66 34.9806C188.877 34.9806 189.057 34.9365 189.199 34.8484C189.345 34.7571 189.461 34.639 189.547 34.4942C189.632 34.3463 189.692 34.1779 189.726 33.989C189.764 33.797 189.782 33.5987 189.782 33.3941C189.782 33.1926 189.764 32.9959 189.726 32.8038C189.692 32.6118 189.632 32.4434 189.547 32.2986C189.461 32.1507 189.345 32.0326 189.199 31.9445C189.057 31.8532 188.877 31.8075 188.66 31.8075C188.451 31.8075 188.275 31.8532 188.133 31.9445C187.99 32.0358 187.874 32.1569 187.786 32.308C187.697 32.456 187.633 32.626 187.593 32.818C187.556 33.0069 187.537 33.1989 187.537 33.3941Z" fill="#4E2D2D"/>
<path d="M191.522 34.8861H192.006C192.12 34.6501 192.214 34.4029 192.289 34.1448C192.366 33.8835 192.427 33.6207 192.473 33.3563C192.518 33.0919 192.551 32.8337 192.571 32.5819C192.591 32.3269 192.606 32.0877 192.614 31.8642C192.623 31.6407 192.626 31.4392 192.623 31.2598C192.623 31.0804 192.624 30.934 192.627 30.8207H196.277V34.8861H196.864V37.2045H195.725V35.9674H192.661V37.2045H191.522V34.8861ZM195.069 34.8861V31.9067H193.681C193.681 32.0011 193.68 32.1176 193.677 32.2561C193.677 32.3946 193.671 32.5489 193.66 32.7188C193.651 32.8857 193.637 33.0635 193.617 33.2524C193.6 33.4413 193.572 33.6301 193.535 33.819C193.501 34.0079 193.458 34.1936 193.407 34.3762C193.358 34.5588 193.297 34.7287 193.223 34.8861H195.069Z" fill="#4E2D2D"/>
<path d="M198.407 33.8096C198.407 33.8568 198.411 33.9197 198.419 33.9984C198.428 34.0771 198.445 34.1621 198.471 34.2534C198.497 34.3447 198.534 34.4376 198.582 34.532C198.631 34.6233 198.695 34.7067 198.775 34.7823C198.858 34.8578 198.958 34.9192 199.075 34.9664C199.195 35.0136 199.338 35.0372 199.503 35.0372C199.589 35.0372 199.673 35.0246 199.756 34.9995C199.842 34.9711 199.92 34.9318 199.992 34.8814C200.063 34.8279 200.125 34.7649 200.176 34.6925C200.23 34.617 200.269 34.532 200.292 34.4376H201.547C201.547 34.532 201.528 34.6406 201.491 34.7634C201.454 34.883 201.397 35.0058 201.32 35.1317C201.246 35.2544 201.151 35.3756 201.037 35.4953C200.923 35.6149 200.787 35.7219 200.63 35.8163C200.473 35.9076 200.295 35.9816 200.095 36.0383C199.898 36.0949 199.678 36.1232 199.435 36.1232C199.124 36.1232 198.831 36.0713 198.557 35.9674C198.285 35.8667 198.047 35.7062 197.841 35.4858C197.638 35.2623 197.478 34.9743 197.361 34.6217C197.244 34.2692 197.186 33.8411 197.186 33.3374C197.186 32.988 197.227 32.6527 197.31 32.3317C197.395 32.0074 197.527 31.7225 197.704 31.477C197.884 31.2315 198.112 31.0363 198.389 30.8915C198.669 30.7436 199.005 30.6696 199.396 30.6696C199.81 30.6696 200.159 30.7451 200.442 30.8962C200.724 31.0442 200.952 31.2551 201.123 31.529C201.297 31.8028 201.421 32.1333 201.496 32.5205C201.57 32.9077 201.607 33.3374 201.607 33.8096H198.407ZM200.347 32.9219C200.347 32.6952 200.316 32.5064 200.253 32.3553C200.193 32.2042 200.116 32.0845 200.022 31.9964C199.93 31.9051 199.829 31.8422 199.718 31.8075C199.606 31.7698 199.499 31.7509 199.396 31.7509C199.296 31.7509 199.191 31.7698 199.079 31.8075C198.968 31.8422 198.865 31.9051 198.771 31.9964C198.679 32.0845 198.602 32.2042 198.539 32.3553C198.479 32.5064 198.449 32.6952 198.449 32.9219H200.347Z" fill="#4E2D2D"/>
<path d="M206.873 35.9674H205.664V31.9067H204.233L204.208 32.8652C204.193 33.4035 204.162 33.8757 204.113 34.2818C204.065 34.6878 203.985 35.0278 203.873 35.3017C203.765 35.5724 203.616 35.777 203.428 35.9155C203.242 36.054 203.004 36.1232 202.712 36.1232C202.575 36.1232 202.455 36.1138 202.353 36.0949C202.25 36.0792 202.165 36.0556 202.1 36.0241V34.905C202.14 34.9239 202.19 34.9412 202.25 34.957C202.313 34.9727 202.388 34.9806 202.477 34.9806C202.568 34.9806 202.65 34.9507 202.721 34.8909C202.792 34.8279 202.854 34.7162 202.905 34.5556C202.957 34.3919 202.997 34.1669 203.025 33.8804C203.054 33.5939 203.072 33.2241 203.081 32.7708L203.115 30.8207H206.873V35.9674Z" fill="#4E2D2D"/>
<path d="M208.145 30.8207H209.357V33.9937H209.375L211.076 30.8207H212.348V35.9674H211.14V32.8652H211.118L209.469 35.9674H208.145V30.8207Z" fill="#4E2D2D"/>
<path d="M217.721 35.9674H216.504V34.074H215.711C215.537 34.074 215.387 34.0819 215.261 34.0976C215.139 34.1102 215.037 34.1432 214.957 34.1968C214.877 34.2471 214.816 34.3227 214.773 34.4234C214.733 34.5241 214.71 34.6611 214.704 34.8342L214.687 35.33C214.682 35.4024 214.673 35.4968 214.662 35.6133C214.653 35.7298 214.626 35.8478 214.58 35.9674H213.299C213.336 35.8982 213.366 35.8321 213.389 35.7691C213.412 35.703 213.429 35.6401 213.44 35.5802C213.455 35.5173 213.465 35.4543 213.47 35.3914C213.479 35.3284 213.486 35.2623 213.492 35.1931L213.552 34.5745C213.566 34.436 213.583 34.3164 213.603 34.2156C213.623 34.1149 213.656 34.0284 213.702 33.956C213.748 33.8804 213.81 33.8159 213.89 33.7624C213.97 33.7088 214.077 33.6601 214.212 33.616C214.169 33.6034 214.12 33.5861 214.066 33.564C214.015 33.5389 213.959 33.5074 213.899 33.4696C213.842 33.4287 213.783 33.3783 213.723 33.3185C213.666 33.2556 213.612 33.1784 213.56 33.0871C213.523 33.0273 213.493 32.9644 213.47 32.8983C213.45 32.829 213.435 32.7629 213.423 32.7C213.412 32.6339 213.405 32.5725 213.402 32.5158C213.399 32.4591 213.398 32.4104 213.398 32.3694C213.398 32.1869 213.418 32.0247 213.458 31.8831C213.498 31.7383 213.549 31.6124 213.612 31.5053C213.675 31.3983 213.746 31.307 213.826 31.2315C213.906 31.1559 213.987 31.0945 214.07 31.0473C214.162 30.9907 214.263 30.9482 214.374 30.9198C214.486 30.8884 214.594 30.8663 214.7 30.8537C214.806 30.838 214.904 30.8286 214.996 30.8254C215.087 30.8223 215.159 30.8207 215.21 30.8207H217.721V35.9674ZM216.504 31.8264H215.527C215.424 31.8264 215.321 31.8296 215.219 31.8359C215.116 31.8422 215.023 31.8673 214.94 31.9114C214.86 31.9523 214.794 32.0184 214.743 32.1097C214.694 32.1979 214.67 32.3238 214.67 32.4875C214.67 32.648 214.694 32.7708 214.743 32.8558C214.794 32.9408 214.859 33.0037 214.936 33.0446C215.016 33.0856 215.104 33.1092 215.201 33.1155C215.298 33.1218 215.396 33.1249 215.493 33.1249H216.504V31.8264Z" fill="#4E2D2D"/>
<path d="M27.844 15.8514C24.6044 12.5834 21.395 9.31544 18.1251 6.08078C17.6709 5.64727 17.0957 5.21376 16.5204 5.11372C13.3716 4.41343 10.4953 4.94698 8.13368 7.58139C7.86119 7.84817 7.64925 8.18164 7.46759 8.48176C7.28593 8.74854 7.16482 9.08201 6.95288 9.48217C7.43731 9.64891 7.83091 9.81564 8.22451 9.98238C11.7972 11.3496 15.3699 12.7168 18.9426 14.0507C19.5784 14.2841 20.0023 14.8177 20.4261 15.4513C20.6381 15.7514 21.3647 16.0182 21.6978 15.9515C22.6061 15.7181 23.3024 15.7514 24.1502 16.0849C26.0879 16.8185 27.9954 17.5521 30.0239 18.119C29.2973 17.3521 28.5706 16.5851 27.844 15.8514ZM16.7021 8.91527C16.5204 9.51552 15.4607 9.64891 14.3707 9.2154C13.2808 8.78189 12.5541 7.94821 12.7358 7.34797C12.9174 6.74772 13.9771 6.61433 15.0671 7.04784C16.1571 7.48135 16.8837 8.31503 16.7021 8.91527ZM23.0905 13.5839C22.9391 14.0507 22.1822 14.2174 21.4253 13.9173C20.6683 13.6172 20.1839 12.9836 20.3353 12.5167C20.4867 12.0499 21.2436 11.8832 22.0005 12.1833C22.7575 12.4501 23.2419 13.0836 23.0905 13.5839Z" fill="#FD9339"/>
<path d="M31.6583 20.587C28.9031 19.5199 26.1479 18.4862 23.3926 17.419C22.7871 17.1856 22.3632 17.3857 21.6971 17.5858C20.9402 17.8192 20.0622 17.4857 19.5172 16.8521C19.2447 16.5187 19.0025 15.785 18.6392 15.6183C14.794 14.1177 10.9185 12.6504 7.04307 11.1832C6.86141 11.1165 6.67975 11.0831 6.43753 11.0498C6.2256 11.7501 6.01366 12.417 5.80172 13.1173C7.64861 15.0848 7.31557 18.4195 3.92455 19.1197C3.50067 20.5203 3.04651 21.9542 2.62263 23.4215C2.07765 25.2556 1.50239 27.0897 0.957401 28.9238C0.684908 29.8908 0.745462 30.0576 1.59322 30.4244C2.28959 30.7245 3.01624 30.9579 3.71261 31.2247C7.76972 32.7587 11.8268 34.326 15.884 35.8599C16.217 35.9933 16.55 36.1267 16.8225 36.2267C19.6383 33.9592 21.5155 34.6928 22.2724 38.2943C23.4532 38.7611 24.7248 39.228 25.9662 39.6948C26.5112 39.8949 26.8745 39.6948 27.0562 39.0612C27.3589 37.9941 27.7223 36.8937 28.0553 35.7599C26.6928 34.7928 25.8148 33.5256 26.3598 31.6916C26.9048 29.8575 28.2672 29.3573 29.8719 29.5574C30.75 26.6895 31.5977 23.855 32.4757 20.9538C32.2032 20.8871 31.9308 20.7204 31.6583 20.587ZM6.92197 28.4902C6.86141 28.657 6.77058 28.8237 6.64947 28.9571C6.28615 29.3573 5.71089 29.5574 5.19618 29.3906C4.56036 29.1905 4.16676 28.4236 4.22731 27.6899C4.22731 27.5899 4.25759 27.4898 4.28787 27.3898C4.31815 27.2231 4.40898 27.0897 4.53008 26.9563C4.53008 26.9229 4.56036 26.9229 4.56036 26.8896C4.74202 26.6895 4.95396 26.5561 5.19618 26.4561C5.22646 26.4561 5.28701 26.4227 5.31729 26.4227C5.58978 26.356 5.86227 26.356 6.10449 26.4561C6.28615 26.5228 6.43753 26.6228 6.55864 26.7896C6.6192 26.8562 6.67975 26.9229 6.7403 27.023C6.89169 27.2898 6.98252 27.5899 7.0128 27.89C7.0128 28.0901 6.98252 28.2902 6.92197 28.4902ZM15.9142 23.2214C15.5509 23.4882 15.127 23.6549 14.6729 23.6883C14.6426 23.6883 14.6123 23.6883 14.6123 23.6883C14.4307 23.6883 14.249 23.6883 14.0371 23.6549C13.8554 23.6216 13.6435 23.5882 13.4618 23.4882C13.2801 23.4215 13.1287 23.3215 12.9774 23.2214C12.2204 22.7212 11.736 21.7875 11.6452 20.7871C11.6149 20.3869 11.6452 19.9868 11.7663 19.6199C11.8874 19.2531 12.0388 18.953 12.2204 18.6529C12.2507 18.5862 12.281 18.5195 12.3113 18.4862C12.4627 18.2861 12.6746 18.086 12.8563 17.9526C13.0076 17.8192 13.1893 17.7192 13.3407 17.6525C13.9462 17.3857 14.6123 17.319 15.3087 17.5858C16.3987 18.0193 17.095 19.0864 17.1556 20.2869C17.1859 20.6871 17.1253 21.1206 17.0042 21.5207C16.9436 21.7208 16.8528 21.9209 16.762 22.121C16.5803 22.6212 16.2776 22.9546 15.9142 23.2214ZM18.4272 31.6249C17.4281 31.6249 16.6106 30.7245 16.6106 29.624C16.6106 28.5236 17.4281 27.6232 18.4272 27.6232C19.4264 27.6232 20.2438 28.5236 20.2438 29.624C20.2438 30.7245 19.4264 31.6249 18.4272 31.6249ZM26.2387 25.0222C26.1479 25.389 25.9359 25.6891 25.6331 25.8892C25.5726 25.9225 25.512 25.9892 25.4212 26.0226C25.1184 26.156 24.7854 26.2227 24.4826 26.1226C23.8468 25.8892 23.4532 25.1889 23.5138 24.4553C23.5138 24.4219 23.5138 24.4219 23.5138 24.3886C23.5138 24.3219 23.544 24.2218 23.5743 24.1551C23.6349 23.9551 23.7257 23.755 23.8468 23.6216C24.0285 23.3882 24.2707 23.2214 24.5432 23.1547C24.8157 23.088 25.0882 23.088 25.3606 23.1881C25.5423 23.2548 25.6937 23.3548 25.8148 23.4882C26.1479 23.8217 26.3295 24.2885 26.2992 24.7887C26.269 24.8221 26.269 24.9221 26.2387 25.0222Z" fill="#FD9339"/>
</g>
<defs>
<clipPath id="clip0_9305_9160">
<rect width="217.938" height="43.6704" fill="white" transform="translate(0.806641 0.465912)"/>
</clipPath>
</defs>
</svg>
