<svg width="23" height="26" viewBox="0 0 23 26" fill="none" xmlns="http://www.w3.org/2000/svg">
<g clip-path="url(#clip0_9305_9122)">
<path d="M10.8172 11.0693L7.14868 15.35L10.4873 13.3311L12.2317 15.35L15.8797 11.0693L12.5781 13.0527L10.8172 11.0693Z" fill="#0084FF"/>
<path d="M11.4552 0.82386C5.20353 0.82386 0.133789 6.41118 0.133789 13.3011C0.133789 20.1911 5.20353 25.7784 11.4552 25.7784C17.7069 25.7784 22.7767 20.1911 22.7767 13.3011C22.7767 6.41118 17.7069 0.82386 11.4552 0.82386ZM11.5437 19.9801C10.8428 19.9801 10.1663 19.871 9.52992 19.669L7.24683 21.0994V18.4085C5.71764 17.126 4.74107 15.1728 4.74107 12.9853C4.74107 9.12193 7.78668 5.99023 11.5437 5.99023C15.3009 5.99023 18.3463 9.12193 18.3463 12.9853C18.3463 16.8483 15.3009 19.9801 11.5437 19.9801Z" fill="#0084FF"/>
</g>
<defs>
<clipPath id="clip0_9305_9122">
<rect width="22.6429" height="24.9546" fill="white" transform="translate(0.133789 0.82386)"/>
</clipPath>
</defs>
</svg>
