<svg width="142" height="46" viewBox="0 0 142 46" fill="none" xmlns="http://www.w3.org/2000/svg">
<rect x="1" y="1" width="140" height="44" rx="5" fill="white" stroke="#808080" stroke-opacity="0.2"/>
<path d="M67.7982 17.016C67.7022 17.16 67.6542 17.304 67.6542 17.448C67.6542 17.64 67.7342 17.784 67.8942 17.896C68.0062 17.96 68.1182 17.992 68.2302 17.992C68.4542 17.992 68.6462 17.896 68.8062 17.704C69.2222 17.176 69.8142 16.92 70.5982 16.92C71.7342 16.92 72.4222 17.592 72.4222 18.696C72.4222 19.256 72.2302 19.704 71.8462 20.072C71.4462 20.44 70.9982 20.632 70.4862 20.632H70.2942C69.3982 20.568 69.3982 21.976 70.2942 21.912H70.5662C71.9262 21.912 72.8542 22.664 72.8542 23.864C72.8542 25.032 72.0062 25.88 70.6462 25.88C69.7022 25.88 68.9822 25.592 68.4862 25C68.3102 24.776 68.1182 24.664 67.8942 24.664C67.7982 24.664 67.6862 24.696 67.5582 24.776C67.3822 24.888 67.3022 25.048 67.3022 25.256C67.3022 25.416 67.3662 25.576 67.4782 25.752C68.1342 26.696 69.2062 27.16 70.6942 27.16C71.7182 27.16 72.5662 26.856 73.2222 26.264C73.8782 25.672 74.2142 24.888 74.2142 23.912C74.2142 22.552 73.3822 21.432 72.0382 21.176C73.1742 20.68 73.7822 19.704 73.7822 18.472C73.7822 16.728 72.5662 15.64 70.6942 15.64C69.4142 15.64 68.4542 16.104 67.7982 17.016Z" fill="#292929"/>
<path d="M32.4166 23H19.5833" stroke="#292929" stroke-width="1.3" stroke-linecap="round" stroke-linejoin="round"/>
<path d="M122.417 23H109.583" stroke="black" stroke-width="1.3" stroke-linecap="round" stroke-linejoin="round"/>
<path d="M116 16.5833V29.4167" stroke="black" stroke-width="1.3" stroke-linecap="round" stroke-linejoin="round"/>
</svg>
