<svg width="24" height="26" viewBox="0 0 24 26" fill="none" xmlns="http://www.w3.org/2000/svg">
<g clip-path="url(#clip0_9305_9120)">
<path d="M12.3007 25.7784C18.5548 25.7784 23.6221 20.1938 23.6221 13.3011C23.6221 6.40848 18.5548 0.82386 12.3007 0.82386C6.04652 0.82386 0.979248 6.40848 0.979248 13.3011C0.979248 20.1938 6.04652 25.7784 12.3007 25.7784ZM6.15974 13.0308L17.0755 8.39237C17.5821 8.19065 18.0246 8.52858 17.8604 9.37287L17.8614 9.37183L16.0028 19.022C15.865 19.7061 15.4961 19.8725 14.9801 19.5502L12.1497 17.2512L10.7845 18.7007C10.6336 18.867 10.5062 19.0074 10.2137 19.0074L10.4147 15.833L15.6603 10.6102C15.8886 10.3887 15.6093 10.264 15.3084 10.4844L8.82593 14.9824L6.03143 14.0217C5.42479 13.8096 5.41158 13.3531 6.15974 13.0308Z" fill="#0088CC"/>
</g>
<defs>
<clipPath id="clip0_9305_9120">
<rect width="22.6428" height="24.9546" fill="white" transform="translate(0.979248 0.82386)"/>
</clipPath>
</defs>
</svg>
