<svg width="23" height="26" viewBox="0 0 23 26" fill="none" xmlns="http://www.w3.org/2000/svg">
<g clip-path="url(#clip0_9305_9125)">
<path d="M11.3781 0.82386C5.12638 0.82386 0.0566406 6.41118 0.0566406 13.3011C0.0566406 20.1911 5.12638 25.7784 11.3781 25.7784C17.6298 25.7784 22.6995 20.1911 22.6995 13.3011C22.6995 6.41118 17.6298 0.82386 11.3781 0.82386ZM11.618 20.5658C11.6179 20.5658 11.6182 20.5658 11.618 20.5658H11.6153C10.4812 20.5652 9.36674 20.2518 8.37704 19.6571L4.78502 20.6952L5.74638 16.8266C5.15333 15.6945 4.84134 14.4101 4.84186 13.0944C4.84341 8.97818 7.88315 5.62945 11.618 5.62945C13.4305 5.63021 15.132 6.40775 16.4112 7.81872C17.6906 9.22988 18.3947 11.1056 18.394 13.1003C18.3925 17.2167 15.3524 20.5658 11.618 20.5658Z" fill="#64AB3C"/>
<path d="M11.6203 6.89039C8.51372 6.89039 5.98722 9.67367 5.98584 13.0949C5.98549 14.2674 6.28332 15.4091 6.84701 16.397L6.98089 16.6318L6.41185 18.9216L8.54343 18.3055L8.74918 18.4399C9.6138 19.0054 10.605 19.3045 11.6156 19.3048H11.6179C14.7221 19.3048 17.2486 16.5214 17.2499 13.0999C17.2505 11.4418 16.6652 9.88291 15.6019 8.71012C14.5386 7.53733 13.1245 6.89096 11.6203 6.89039ZM14.933 15.7627C14.7919 16.1983 14.1155 16.596 13.7902 16.6497C13.4985 16.6977 13.1295 16.7177 12.7238 16.5758C12.4778 16.4898 12.1626 16.375 11.7585 16.1829C10.0602 15.3748 8.95095 13.4908 8.8663 13.3663C8.78165 13.2417 8.17495 12.3547 8.17495 11.4365C8.17495 10.5184 8.61236 10.067 8.76749 9.88043C8.92279 9.69366 9.10625 9.64702 9.21906 9.64702C9.33187 9.64702 9.44485 9.64816 9.54349 9.65349C9.64749 9.6592 9.78707 9.60989 9.92441 9.97372C10.0655 10.3473 10.4041 11.2653 10.4465 11.3586C10.4888 11.4521 10.5169 11.561 10.4606 11.6855C10.4041 11.81 10.2165 12.0787 10.0374 12.3235C9.96224 12.4261 9.86429 12.5175 9.9631 12.7043C10.0617 12.8909 10.4017 13.5018 10.9049 13.9964C11.5517 14.632 12.0973 14.8288 12.2666 14.9223C12.4357 15.0156 12.5345 15 12.6333 14.8756C12.732 14.7511 13.0566 14.3309 13.1694 14.1442C13.2822 13.9574 13.3952 13.9886 13.5503 14.0509C13.7056 14.113 14.5379 14.5644 14.7072 14.6577C14.8765 14.7511 14.9893 14.7978 15.0316 14.8756C15.0741 14.9535 15.0741 15.3269 14.933 15.7627Z" fill="#64AB3C"/>
</g>
<defs>
<clipPath id="clip0_9305_9125">
<rect width="22.6429" height="24.9546" fill="white" transform="translate(0.0566406 0.82386)"/>
</clipPath>
</defs>
</svg>
